<svg id="Layer_1" data-name="Layer 1" xmlns="http://www.w3.org/2000/svg" viewBox="0 0 31.93 28.35"><defs><style>.cls-1{fill:#0d8cef;}</style></defs><title>Artboard 1</title><path class="cls-1" d="M14,27.28l.9-.88a.63.63,0,0,0,0-.86L5.18,14.23V14L15,2.87a.62.62,0,0,0,0-.87l-1-.93a.62.62,0,0,0-.91,0L1.81,14v.38l11.3,12.85A.63.63,0,0,0,14,27.28Z"/><path class="cls-1" d="M18.85,27.24l11.3-12.85V14L18.9,1.11a.62.62,0,0,0-.91,0L17,2a.63.63,0,0,0,0,.87L26.78,14v.23L17,25.54a.62.62,0,0,0,0,.86l.9.88A.63.63,0,0,0,18.85,27.24Z"/></svg>