<svg id="Layer_1" data-name="Layer 1" xmlns="http://www.w3.org/2000/svg" viewBox="0 0 63.82 24.68"><defs><style>.cls-1{fill:#e4e5e6;}</style></defs><title>Artboard 1 copy</title><path class="cls-1" d="M9.29,1.65A17.13,17.13,0,0,0,1.81,15.41c0,4.55,2.75,7.22,5.93,7.22A5.22,5.22,0,0,0,13,17.38a4.63,4.63,0,0,0-4.56-4.9,5.12,5.12,0,0,0-1.38.17C7.48,9.73,10.23,6.29,13,4.57Zm14.79,0a17.3,17.3,0,0,0-7.4,13.76c0,4.55,2.76,7.22,5.94,7.22a5.27,5.27,0,0,0,5.24-5.25,4.69,4.69,0,0,0-4.64-4.9,4.37,4.37,0,0,0-1.29.17c.43-2.92,3.09-6.36,5.85-8.08Z"/><path class="cls-1" d="M38.87,22.63A17.14,17.14,0,0,0,46.44,8.78c0-4.55-2.84-7.13-6-7.13A5.28,5.28,0,0,0,35.17,7a4.64,4.64,0,0,0,4.65,4.9,4.15,4.15,0,0,0,1.29-.26c-.43,2.84-3.1,6.37-5.85,8.09Zm14.88,0A17.29,17.29,0,0,0,61.23,8.78c0-4.55-2.84-7.13-6-7.13A5.34,5.34,0,0,0,50,7a4.71,4.71,0,0,0,4.73,4.9A4.09,4.09,0,0,0,56,11.62c-.51,2.84-3.09,6.37-5.84,8.09Z"/></svg>