<svg id="Слой_1" xmlns="http://www.w3.org/2000/svg" viewBox="-212 98 535 365" style="enable-background:new -212 98 535 365"><style>.st0{opacity:0.56;fill:#46EB6A;enable-background:new ;} .st1{fill:#46EB6A;} .st2{opacity:0.56;fill:#FF6161;enable-background:new ;} .st3{fill:#FF6161;} .st4{enable-background:new ;} .st5{fill:#8C94A0;} .st6{opacity:0.4;fill:none;stroke:#8C94A0;stroke-dasharray:1,4;enable-background:new ;} .st7{fill:#FFFFFF;} .st8{opacity:0.4;fill:#13B72A;enable-background:new ;}</style><g transform="translate(-16 -2)"><path class="st0" d="M-210.2 98c.3 0 .5.2.5.5v74c0 .3-.2.5-.5.5s-.5-.2-.5-.5v-74c0-.3.2-.5.5-.5z" transform="translate(478 116)"/><path class="st1" d="M-211 102.7h1c.6 0 1 .4 1 1v51.1c0 .6-.4 1-1 1h-1c-.6 0-1-.4-1-1v-51.1c0-.5.4-1 1-1z" transform="translate(478 116)"/><path class="st0" d="M-210.2 98c.3 0 .5.2.5.5v74c0 .3-.2.5-.5.5s-.5-.2-.5-.5v-74c0-.3.2-.5.5-.5z" transform="translate(177 225)"/><path class="st1" d="M-211 102.7h1c.6 0 1 .4 1 1v51.1c0 .6-.4 1-1 1h-1c-.6 0-1-.4-1-1v-51.1c0-.5.4-1 1-1z" transform="translate(177 225)"/><path class="st0" d="M-210.2 98c.3 0 .5.2.5.5v114c0 .3-.2.5-.5.5s-.5-.2-.5-.5v-114c0-.3.2-.5.5-.5z" transform="translate(509 120)"/><path class="st1" d="M-211 105.1h1c.6 0 1 .4 1 1v79.4c0 .6-.4 1-1 1h-1c-.6 0-1-.4-1-1v-79.4c0-.6.4-1 1-1z" transform="translate(509 120)"/><path class="st0" d="M-210.2 98c.3 0 .5.2.5.5v114c0 .3-.2.5-.5.5s-.5-.2-.5-.5v-114c0-.3.2-.5.5-.5z" transform="translate(210 229)"/><path class="st1" d="M-211 105.1h1c.6 0 1 .4 1 1v79.4c0 .6-.4 1-1 1h-1c-.6 0-1-.4-1-1v-79.4c0-.6.4-1 1-1z" transform="translate(210 229)"/><path class="st0" d="M306.5 239c.1 0 .2.1.2.2v56.6c0 .1-.1.2-.2.2s-.2-.1-.2-.2v-56.6c0-.1.1-.2.2-.2z"/><path class="st1" d="M306 247.2h1c.6 0 1 .4 1 1v38.5c0 .6-.4 1-1 1h-1c-.6 0-1-.4-1-1v-38.5c0-.5.4-1 1-1z"/><path class="st0" d="M6.5 347c.1 0 .2.1.2.2v56.6c0 .1-.1.2-.2.2s-.2-.1-.2-.2v-56.6c0-.1.1-.2.2-.2z"/><path class="st1" d="M6 355.2h1c.6 0 1 .4 1 1v38.5c0 .6-.4 1-1 1H6c-.6 0-1-.4-1-1v-38.5c0-.5.4-1 1-1z"/><path class="st2" d="M319.5 216c.1 0 .2.1.2.2v66.6c0 .1-.1.2-.2.2s-.2-.1-.2-.2v-66.6c0-.1.1-.2.2-.2z"/><path class="st3" d="M319 225.5h1c.6 0 1 .4 1 1v45.4c0 .6-.4 1-1 1h-1c-.6 0-1-.4-1-1v-45.4c0-.6.4-1 1-1z"/><path class="st0" d="M-210.5 98c.1 0 .2.1.2.2v40.6c0 .1-.1.2-.2.2s-.2-.1-.2-.2V98.2c0-.1.1-.2.2-.2z" transform="translate(230 220)"/><path class="st1" d="M-211 103.9h1c.6 0 1 .4 1 1V132c0 .6-.4 1-1 1h-1c-.6 0-1-.4-1-1v-27.1c0-.5.4-1 1-1z" transform="translate(230 220)"/><path class="st2" d="M-210.2 98c.3 0 .5.2.5.5v53c0 .3-.2.5-.5.5s-.5-.2-.5-.5v-53c0-.3.2-.5.5-.5z" transform="translate(483 106)"/><path class="st3" d="M-211 110.6h1c.6 0 1 .4 1 1v29.2c0 .6-.4 1-1 1h-1c-.6 0-1-.4-1-1v-29.2c0-.6.4-1 1-1z" transform="translate(483 106)"/><path class="st2" d="M-210.2 98c.3 0 .5.2.5.5v53c0 .3-.2.5-.5.5s-.5-.2-.5-.5v-53c0-.3.2-.5.5-.5z" transform="translate(183 215)"/><path class="st3" d="M-211 110.6h1c.6 0 1 .4 1 1v29.2c0 .6-.4 1-1 1h-1c-.6 0-1-.4-1-1v-29.2c0-.6.4-1 1-1z" transform="translate(183 215)"/><path class="st2" d="M312.5 204c.1 0 .2.1.2.2v80.6c0 .1-.1.2-.2.2s-.2-.1-.2-.2v-80.6c0-.1.1-.2.2-.2z"/><path class="st3" d="M312 223.1h1c.6 0 1 .4 1 1v45.1c0 .6-.4 1-1 1h-1c-.6 0-1-.4-1-1v-45c0-.7.4-1.1 1-1.1z"/><path class="st2" d="M12.5 313c.1 0 .2.1.2.2v80.6c0 .1-.1.2-.2.2s-.2-.1-.2-.2v-80.6c0-.1.1-.2.2-.2z"/><path class="st3" d="M12 332.1h1c.6 0 1 .4 1 1v45.1c0 .6-.4 1-1 1h-1c-.6 0-1-.4-1-1v-45.1c0-.6.4-1 1-1z"/><path class="st2" d="M279.5 204c.1 0 .2.1.2.2v25.6c0 .1-.1.2-.2.2s-.2-.1-.2-.2v-25.6c0-.1.1-.2.2-.2z"/><path class="st3" d="M279 210h1c.6 0 1 .4 1 1v13.1c0 .6-.4 1-1 1h-1c-.6 0-1-.4-1-1V211c0-.5.4-1 1-1z"/><path class="st2" d="M-19.5 313c.1 0 .2.1.2.2v25.6c0 .1-.1.2-.2.2s-.2-.1-.2-.2v-25.6c0-.1.1-.2.2-.2z"/><path class="st3" d="M-20 319h1c.6 0 1 .4 1 1v13.1c0 .6-.4 1-1 1h-1c-.6 0-1-.4-1-1V320c0-.5.4-1 1-1z"/><path class="st2" d="M285.5 209c.1 0 .2.1.2.2v35.6c0 .1-.1.2-.2.2s-.2-.1-.2-.2v-35.6c0-.1.1-.2.2-.2z"/><path class="st3" d="M285 217.4h1c.6 0 1 .4 1 1v19c0 .6-.4 1-1 1h-1c-.6 0-1-.4-1-1v-19c0-.6.4-1 1-1z"/><path class="st2" d="M-14.5 318c.1 0 .2.1.2.2v35.6c0 .1-.1.2-.2.2s-.2-.1-.2-.2v-35.6c0-.1.1-.2.2-.2z"/><path class="st3" d="M-15 326.4h1c.6 0 1 .4 1 1v19c0 .6-.4 1-1 1h-1c-.6 0-1-.4-1-1v-19c0-.6.4-1 1-1z"/><path class="st2" d="M-210.2 98c.3 0 .5.2.5.5v31c0 .3-.2.5-.5.5s-.5-.2-.5-.5v-31c0-.3.2-.5.5-.5z" transform="translate(503 131)"/><path class="st3" d="M-211 103.1h1c.6 0 1 .4 1 1v11.1c0 .6-.4 1-1 1h-1c-.6 0-1-.4-1-1v-11.1c0-.5.4-1 1-1z" transform="translate(503 131)"/><path class="st2" d="M-210.2 98c.3 0 .5.2.5.5v31c0 .3-.2.5-.5.5s-.5-.2-.5-.5v-31c0-.3.2-.5.5-.5z" transform="translate(204 240)"/><path class="st3" d="M-211 103.1h1c.6 0 1 .4 1 1v11.1c0 .6-.4 1-1 1h-1c-.6 0-1-.4-1-1v-11.1c0-.5.4-1 1-1z" transform="translate(204 240)"/><path class="st0" d="M-210.2 98c.3 0 .5.2.5.5v74c0 .3-.2.5-.5.5s-.5-.2-.5-.5v-74c0-.3.2-.5.5-.5z" transform="translate(419 167)"/><path class="st1" d="M-211 102.7h1c.6 0 1 .4 1 1v51.1c0 .6-.4 1-1 1h-1c-.6 0-1-.4-1-1v-51.1c0-.5.4-1 1-1z" transform="translate(419 167)"/><path class="st0" d="M-210.2 98c.3 0 .5.2.5.5v74c0 .3-.2.5-.5.5s-.5-.2-.5-.5v-74c0-.3.2-.5.5-.5z" transform="translate(120 239)"/><path class="st1" d="M-211 102.7h1c.6 0 1 .4 1 1v51.1c0 .6-.4 1-1 1h-1c-.6 0-1-.4-1-1v-51.1c0-.5.4-1 1-1z" transform="translate(120 239)"/><path class="st1" d="M-196 341h1c.6 0 1 .4 1 1v52c0 .6-.4 1-1 1h-1v-54z"/><path class="st0" d="M-210.2 98c.3 0 .5.2.5.5v38c0 .3-.2.5-.5.5s-.5-.2-.5-.5v-38c0-.3.2-.5.5-.5z" transform="translate(386 160)"/><path class="st1" d="M-211 106.4h1c.6 0 1 .4 1 1v11.8c0 .6-.4 1-1 1h-1c-.6 0-1-.4-1-1v-11.8c0-.6.4-1 1-1z" transform="translate(386 160)"/><path class="st0" d="M-210.2 98c.3 0 .5.2.5.5v38c0 .3-.2.5-.5.5s-.5-.2-.5-.5v-38c0-.3.2-.5.5-.5z" transform="translate(93 264)"/><path class="st1" d="M-211 106.4h1c.6 0 1 .4 1 1v11.8c0 .6-.4 1-1 1h-1c-.6 0-1-.4-1-1v-11.8c0-.6.4-1 1-1z" transform="translate(93 264)"/><path class="st0" d="M201.5 295c.1 0 .2.1.2.2v43.6c0 .1-.1.2-.2.2s-.2-.1-.2-.2v-43.6c0-.1.1-.2.2-.2z"/><path class="st1" d="M201 298h1c.6 0 1 .4 1 1v28.9c0 .6-.4 1-1 1h-1c-.6 0-1-.4-1-1V299c0-.6.4-1 1-1z"/><path class="st0" d="M-98.5 365c.1 0 .2.1.2.2v43.6c0 .1-.1.2-.2.2s-.2-.1-.2-.2v-43.6c0-.1.1-.2.2-.2z"/><path class="st1" d="M-99 368h1c.6 0 1 .4 1 1v28.9c0 .6-.4 1-1 1h-1c-.6 0-1-.4-1-1V369c0-.6.4-1 1-1z"/><path class="st0" d="M195.5 287c.1 0 .2.1.2.2v44.6c0 .1-.1.2-.2.2s-.2-.1-.2-.2v-44.6c0-.1.1-.2.2-.2z"/><path class="st1" d="M195 319h1c.6 0 1 .4 1 1v8.1c0 .6-.4 1-1 1h-1c-.6 0-1-.4-1-1V320c0-.6.4-1 1-1z"/><path class="st0" d="M-104.5 358c.1 0 .2.1.2.2v44.6c0 .1-.1.2-.2.2s-.2-.1-.2-.2v-44.6c0-.1.1-.2.2-.2z"/><path class="st1" d="M-105 390h1c.6 0 1 .4 1 1v8.1c0 .6-.4 1-1 1h-1c-.6 0-1-.4-1-1V391c0-.6.4-1 1-1z"/><path class="st2" d="M-210.2 98c.3 0 .5.2.5.5v114c0 .3-.2.5-.5.5s-.5-.2-.5-.5v-114c0-.3.2-.5.5-.5z" transform="translate(451 130)"/><path class="st3" d="M-211 105.1h1c.6 0 1 .4 1 1v79.4c0 .6-.4 1-1 1h-1c-.6 0-1-.4-1-1v-79.4c0-.6.4-1 1-1z" transform="translate(451 130)"/><path class="st2" d="M-210.2 98c.3 0 .5.2.5.5v114c0 .3-.2.5-.5.5s-.5-.2-.5-.5v-114c0-.3.2-.5.5-.5z" transform="translate(152 239)"/><path class="st3" d="M-211 105.1h1c.6 0 1 .4 1 1v79.4c0 .6-.4 1-1 1h-1c-.6 0-1-.4-1-1v-79.4c0-.6.4-1 1-1z" transform="translate(152 239)"/><path class="st0" d="M-210.5 98c.1 0 .2.1.2.2v40.6c0 .1-.1.2-.2.2s-.2-.1-.2-.2V98.2c0-.1.1-.2.2-.2z" transform="translate(471 160)"/><path class="st1" d="M-211 103.9h1c.6 0 1 .4 1 1V132c0 .6-.4 1-1 1h-1c-.6 0-1-.4-1-1v-27.1c0-.5.4-1 1-1z" transform="translate(471 160)"/><path class="st0" d="M-210.5 98c.1 0 .2.1.2.2v40.6c0 .1-.1.2-.2.2s-.2-.1-.2-.2V98.2c0-.1.1-.2.2-.2z" transform="translate(172 269)"/><path class="st1" d="M-211 103.9h1c.6 0 1 .4 1 1V132c0 .6-.4 1-1 1h-1c-.6 0-1-.4-1-1v-27.1c0-.5.4-1 1-1z" transform="translate(172 269)"/><path class="st2" d="M-210.2 98c.3 0 .5.2.5.5v53c0 .3-.2.5-.5.5s-.5-.2-.5-.5v-53c0-.3.2-.5.5-.5z" transform="translate(425 152)"/><path class="st3" d="M-211 110.6h1c.6 0 1 .4 1 1v29.2c0 .6-.4 1-1 1h-1c-.6 0-1-.4-1-1v-29.2c0-.6.4-1 1-1z" transform="translate(425 152)"/><path class="st2" d="M-210.2 98c.3 0 .5.2.5.5v53c0 .3-.2.5-.5.5s-.5-.2-.5-.5v-53c0-.3.2-.5.5-.5z" transform="translate(125 261)"/><path class="st3" d="M-211 110.6h1c.6 0 1 .4 1 1v29.2c0 .6-.4 1-1 1h-1c-.6 0-1-.4-1-1v-29.2c0-.6.4-1 1-1z" transform="translate(125 261)"/><path class="st2" d="M-210.2 98c.3 0 .5.2.5.5v53c0 .3-.2.5-.5.5s-.5-.2-.5-.5v-53c0-.3.2-.5.5-.5z" transform="translate(393 152)"/><path class="st3" d="M-211 110.6h1c.6 0 1 .4 1 1v29.2c0 .6-.4 1-1 1h-1c-.6 0-1-.4-1-1v-29.2c0-.6.4-1 1-1z" transform="translate(393 152)"/><path class="st2" d="M-210.2 98c.3 0 .5.2.5.5v53c0 .3-.2.5-.5.5s-.5-.2-.5-.5v-53c0-.3.2-.5.5-.5z" transform="translate(100 257)"/><path class="st3" d="M-211 110.6h1c.6 0 1 .4 1 1v29.2c0 .6-.4 1-1 1h-1c-.6 0-1-.4-1-1v-29.2c0-.6.4-1 1-1z" transform="translate(100 257)"/><path class="st2" d="M-210.2 98c.3 0 .5.2.5.5v53c0 .3-.2.5-.5.5s-.5-.2-.5-.5v-53c0-.3.2-.5.5-.5z" transform="translate(399 181)"/><path class="st3" d="M-211 110.6h1c.6 0 1 .4 1 1v29.2c0 .6-.4 1-1 1h-1c-.6 0-1-.4-1-1v-29.2c0-.6.4-1 1-1z" transform="translate(399 181)"/><path class="st2" d="M253.5 250c.1 0 .2.1.2.2v43.6c0 .1-.1.2-.2.2s-.2-.1-.2-.2v-43.6c0-.1.1-.2.2-.2z"/><path class="st3" d="M253 260.1h1c.6 0 1 .4 1 1v23.6c0 .6-.4 1-1 1h-1c-.6 0-1-.4-1-1v-23.6c0-.5.4-1 1-1z"/><path class="st2" d="M-45.5 358c.1 0 .2.1.2.2v43.6c0 .1-.1.2-.2.2s-.2-.1-.2-.2v-43.6c0-.1.1-.2.2-.2z"/><path class="st3" d="M-46 368.1h1c.6 0 1 .4 1 1v23.6c0 .6-.4 1-1 1h-1c-.6 0-1-.4-1-1v-23.6c0-.5.4-1 1-1z"/><path class="st2" d="M248.5 269c.1 0 .2.1.2.2v43.6c0 .1-.1.2-.2.2s-.2-.1-.2-.2v-43.6c0-.1.1-.2.2-.2z"/><path class="st3" d="M248 279.1h1c.6 0 1 .4 1 1v23.6c0 .6-.4 1-1 1h-1c-.6 0-1-.4-1-1v-23.6c0-.5.4-1 1-1z"/><path class="st2" d="M-51.5 378c.1 0 .2.1.2.2v43.6c0 .1-.1.2-.2.2s-.2-.1-.2-.2v-43.6c0-.1.1-.2.2-.2z"/><path class="st3" d="M-52 388.1h1c.6 0 1 .4 1 1v23.6c0 .6-.4 1-1 1h-1c-.6 0-1-.4-1-1v-23.6c0-.5.4-1 1-1z"/><path class="st0" d="M220.5 265c.1 0 .2.1.2.2v25.6c0 .1-.1.2-.2.2s-.2-.1-.2-.2v-25.6c0-.1.1-.2.2-.2z"/><path class="st1" d="M220 271h1c.6 0 1 .4 1 1v13.1c0 .6-.4 1-1 1h-1c-.6 0-1-.4-1-1V272c0-.5.4-1 1-1z"/><path class="st0" d="M-78.5 373c.1 0 .2.1.2.2v25.6c0 .1-.1.2-.2.2s-.2-.1-.2-.2v-25.6c0-.1.1-.2.2-.2z"/><path class="st1" d="M-79 379h1c.6 0 1 .4 1 1v13.1c0 .6-.4 1-1 1h-1c-.6 0-1-.4-1-1V380c0-.5.4-1 1-1z"/><path class="st0" d="M227.5 247c.1 0 .2.1.2.2v35.6c0 .1-.1.2-.2.2s-.2-.1-.2-.2v-35.6c0-.1.1-.2.2-.2z"/><path class="st1" d="M227 255.4h1c.6 0 1 .4 1 1v19c0 .6-.4 1-1 1h-1c-.6 0-1-.4-1-1v-19c0-.6.4-1 1-1z"/><path class="st0" d="M-71.5 356c.1 0 .2.1.2.2v35.6c0 .1-.1.2-.2.2s-.2-.1-.2-.2v-35.6c0-.1.1-.2.2-.2z"/><path class="st1" d="M-72 364.4h1c.6 0 1 .4 1 1v19c0 .6-.4 1-1 1h-1c-.6 0-1-.4-1-1v-19c0-.6.4-1 1-1z"/><path class="st0" d="M-210.2 98c.3 0 .5.2.5.5v31c0 .3-.2.5-.5.5s-.5-.2-.5-.5v-31c0-.3.2-.5.5-.5z" transform="translate(445 141)"/><path class="st1" d="M-211 103.1h1c.6 0 1 .4 1 1v11.1c0 .6-.4 1-1 1h-1c-.6 0-1-.4-1-1v-11.1c0-.5.4-1 1-1z" transform="translate(445 141)"/><path class="st0" d="M-210.2 98c.3 0 .5.2.5.5v31c0 .3-.2.5-.5.5s-.5-.2-.5-.5v-31c0-.3.2-.5.5-.5z" transform="translate(146 250)"/><path class="st1" d="M-211 103.1h1c.6 0 1 .4 1 1v11.1c0 .6-.4 1-1 1h-1c-.6 0-1-.4-1-1v-11.1c0-.5.4-1 1-1z" transform="translate(146 250)"/><path class="st0" d="M-210.2 98c.3 0 .5.2.5.5v27c0 .3-.2.5-.5.5s-.5-.2-.5-.5v-27c0-.3.2-.5.5-.5z" transform="translate(328 205)"/><path class="st1" d="M-211 99.8h1c.6 0 1 .4 1 1v17.8c0 .6-.4 1-1 1h-1c-.6 0-1-.4-1-1v-17.8c0-.6.4-1 1-1z" transform="translate(328 205)"/><path class="st0" d="M-210.2 98c.3 0 .5.2.5.5v27c0 .3-.2.5-.5.5s-.5-.2-.5-.5v-27c0-.3.2-.5.5-.5z" transform="translate(34 247)"/><path class="st1" d="M-211 99.8h1c.6 0 1 .4 1 1v17.8c0 .6-.4 1-1 1h-1c-.6 0-1-.4-1-1v-17.8c0-.6.4-1 1-1z" transform="translate(34 247)"/><path class="st0" d="M-210.2 98c.3 0 .5.2.5.5v27c0 .3-.2.5-.5.5s-.5-.2-.5-.5v-27c0-.3.2-.5.5-.5z" transform="translate(359 169)"/><path class="st1" d="M-211 99.8h1c.6 0 1 .4 1 1v17.8c0 .6-.4 1-1 1h-1c-.6 0-1-.4-1-1v-17.8c0-.6.4-1 1-1z" transform="translate(359 169)"/><path class="st0" d="M-210.2 98c.3 0 .5.2.5.5v27c0 .3-.2.5-.5.5s-.5-.2-.5-.5v-27c0-.3.2-.5.5-.5z" transform="translate(67 271)"/><path class="st1" d="M-211 99.8h1c.6 0 1 .4 1 1v17.8c0 .6-.4 1-1 1h-1c-.6 0-1-.4-1-1v-17.8c0-.6.4-1 1-1z" transform="translate(67 271)"/><path class="st0" d="M-210.5 98c.1 0 .2.1.2.2v9.6c0 .1-.1.2-.2.2s-.2-.1-.2-.2v-9.6c0-.1.1-.2.2-.2z" transform="translate(367 164)"/><path class="st1" d="M-211 99.2h1c.6 0 1 .4 1 1v4.9c0 .6-.4 1-1 1h-1c-.6 0-1-.4-1-1v-4.9c0-.5.4-1 1-1z" transform="translate(367 164)"/><path class="st0" d="M-210.5 98c.1 0 .2.1.2.2v9.6c0 .1-.1.2-.2.2s-.2-.1-.2-.2v-9.6c0-.1.1-.2.2-.2z" transform="translate(72 269)"/><path class="st1" d="M-211 99.2h1c.6 0 1 .4 1 1v4.9c0 .6-.4 1-1 1h-1c-.6 0-1-.4-1-1v-4.9c0-.5.4-1 1-1z" transform="translate(72 269)"/><path class="st0" d="M-210.5 98c.1 0 .2.1.2.2v40.6c0 .1-.1.2-.2.2s-.2-.1-.2-.2V98.2c0-.1.1-.2.2-.2z" transform="translate(379 155)"/><path class="st1" d="M-211 103.9h1c.6 0 1 .4 1 1V132c0 .6-.4 1-1 1h-1c-.6 0-1-.4-1-1v-27.1c0-.5.4-1 1-1z" transform="translate(379 155)"/><path class="st0" d="M-210.5 98c.1 0 .2.1.2.2v40.6c0 .1-.1.2-.2.2s-.2-.1-.2-.2V98.2c0-.1.1-.2.2-.2z" transform="translate(86 259)"/><path class="st1" d="M-211 103.9h1c.6 0 1 .4 1 1V132c0 .6-.4 1-1 1h-1c-.6 0-1-.4-1-1v-27.1c0-.5.4-1 1-1z" transform="translate(86 259)"/><path class="st2" d="M124.5 316c.1 0 .2.1.2.2v2.6c0 .1-.1.2-.2.2s-.2-.1-.2-.2v-2.6c0-.1.1-.2.2-.2z"/><path class="st3" d="M123.8 316.5h1.5c.4 0 .8.3.8.8s-.3.8-.8.8h-1.5c-.4 0-.8-.3-.8-.8s.3-.8.8-.8z"/><path class="st2" d="M-169.5 358c.1 0 .2.1.2.2v2.6c0 .1-.1.2-.2.2s-.2-.1-.2-.2v-2.6c0-.1.1-.2.2-.2z"/><path class="st3" d="M-170.2 358.5h1.5c.4 0 .8.3.8.8s-.3.8-.8.8h-1.5c-.4 0-.8-.3-.8-.8s.3-.8.8-.8z"/><path class="st2" d="M162.5 261c.1 0 .2.1.2.2v5.6c0 .1-.1.2-.2.2s-.2-.1-.2-.2v-5.6c0-.1.1-.2.2-.2z"/><path class="st3" d="M162 262.6h1c.6 0 1 .4 1 1v1.3c0 .6-.4 1-1 1h-1c-.6 0-1-.4-1-1v-1.3c0-.5.4-1 1-1z"/><path class="st2" d="M-130.5 365c.1 0 .2.1.2.2v5.6c0 .1-.1.2-.2.2s-.2-.1-.2-.2v-5.6c0-.1.1-.2.2-.2z"/><path class="st3" d="M-131 366.6h1c.6 0 1 .4 1 1v1.3c0 .6-.4 1-1 1h-1c-.6 0-1-.4-1-1v-1.3c0-.5.4-1 1-1z"/><path class="st2" d="M129.5 288c.1 0 .2.1.2.2v74.6c0 .1-.1.2-.2.2s-.2-.1-.2-.2v-74.6c0-.1.1-.2.2-.2z"/><path class="st3" d="M129 305.7h1c.6 0 1 .4 1 1v41.7c0 .6-.4 1-1 1h-1c-.6 0-1-.4-1-1v-41.7c0-.5.4-1 1-1z"/><path class="st2" d="M-163.5 337c.1 0 .2.1.2.2v74.6c0 .1-.1.2-.2.2s-.2-.1-.2-.2v-74.6c0-.1.1-.2.2-.2z"/><path class="st3" d="M-164 354.7h1c.6 0 1 .4 1 1v41.7c0 .6-.4 1-1 1h-1c-.6 0-1-.4-1-1v-41.7c0-.5.4-1 1-1z"/><path class="st2" d="M136.5 280c.1 0 .2.1.2.2v35.6c0 .1-.1.2-.2.2s-.2-.1-.2-.2v-35.6c0-.1.1-.2.2-.2z"/><path class="st3" d="M136 288.4h1c.6 0 1 .4 1 1v19c0 .6-.4 1-1 1h-1c-.6 0-1-.4-1-1v-19c0-.6.4-1 1-1z"/><path class="st2" d="M-156.5 384c.1 0 .2.1.2.2v35.6c0 .1-.1.2-.2.2s-.2-.1-.2-.2v-35.6c0-.1.1-.2.2-.2z"/><path class="st3" d="M-157 392.4h1c.6 0 1 .4 1 1v19c0 .6-.4 1-1 1h-1c-.6 0-1-.4-1-1v-19c0-.6.4-1 1-1z"/><path class="st2" d="M-210.2 98c.3 0 .5.2.5.5v31c0 .3-.2.5-.5.5s-.5-.2-.5-.5v-31c0-.3.2-.5.5-.5z" transform="translate(354 173)"/><path class="st3" d="M-211 103.1h1c.6 0 1 .4 1 1v11.1c0 .6-.4 1-1 1h-1c-.6 0-1-.4-1-1v-11.1c0-.5.4-1 1-1z" transform="translate(354 173)"/><path class="st2" d="M-210.2 98c.3 0 .5.2.5.5v31c0 .3-.2.5-.5.5s-.5-.2-.5-.5v-31c0-.3.2-.5.5-.5z" transform="translate(60 278)"/><path class="st3" d="M-211 103.1h1c.6 0 1 .4 1 1v11.1c0 .6-.4 1-1 1h-1c-.6 0-1-.4-1-1v-11.1c0-.5.4-1 1-1z" transform="translate(60 278)"/><path class="st0" d="M-210.2 98c.3 0 .5.2.5.5v74c0 .3-.2.5-.5.5s-.5-.2-.5-.5v-74c0-.3.2-.5.5-.5z" transform="translate(269 233)"/><path class="st1" d="M-211 102.7h1c.6 0 1 .4 1 1v51.1c0 .6-.4 1-1 1h-1c-.6 0-1-.4-1-1v-51.1c0-.5.4-1 1-1z" transform="translate(269 233)"/><g><path class="st0" d="M-210.2 98c.3 0 .5.2.5.5v44c0 .3-.2.5-.5.5s-.5-.2-.5-.5v-44c0-.3.2-.5.5-.5z" transform="translate(236 241)"/><path class="st1" d="M-211 101h1c.6 0 1 .4 1 1v30c0 .6-.4 1-1 1h-1c-.6 0-1-.4-1-1v-30c0-.6.4-1 1-1z" transform="translate(236 241)"/></g><g><path class="st0" d="M51.5 369c.1 0 .2.1.2.2v43.6c0 .1-.1.2-.2.2s-.2-.1-.2-.2v-43.6c0-.1.1-.2.2-.2z"/><path class="st1" d="M51 372h1c.6 0 1 .4 1 1v28.9c0 .6-.4 1-1 1h-1c-.6 0-1-.4-1-1V373c0-.6.4-1 1-1z"/></g><g><path class="st0" d="M45.5 353c.1 0 .2.1.2.2v44.6c0 .1-.1.2-.2.2s-.2-.1-.2-.2v-44.6c0-.1.1-.2.2-.2z"/><path class="st1" d="M45 385h1c.6 0 1 .4 1 1v8.1c0 .6-.4 1-1 1h-1c-.6 0-1-.4-1-1V386c0-.6.4-1 1-1z"/></g><g><path class="st0" d="M-210.2 98c.3 0 .5.2.5.5v80c0 .3-.2.5-.5.5s-.5-.2-.5-.5v-80c0-.3.2-.5.5-.5z" transform="translate(302 207)"/><path class="st1" d="M-211 102.8h1c.6 0 1 .4 1 1V159c0 .6-.4 1-1 1h-1c-.6 0-1-.4-1-1v-55.2c0-.6.4-1 1-1z" transform="translate(302 207)"/></g><g><path class="st0" d="M-210.2 98c.3 0 .5.2.5.5v19c0 .3-.2.5-.5.5s-.5-.2-.5-.5v-19c0-.3.2-.5.5-.5z" transform="translate(320 219)"/><path class="st1" d="M-211 102h1c.6 0 1 .4 1 1v2.6c0 .6-.4 1-1 1h-1c-.6 0-1-.4-1-1V103c0-.6.4-1 1-1z" transform="translate(320 219)"/></g><g><path class="st0" d="M-210.2 98c.3 0 .5.2.5.5v19c0 .3-.2.5-.5.5s-.5-.2-.5-.5v-19c0-.3.2-.5.5-.5z" transform="translate(28 263)"/><path class="st1" d="M-211 102h1c.6 0 1 .4 1 1v2.6c0 .6-.4 1-1 1h-1c-.6 0-1-.4-1-1V103c0-.6.4-1 1-1z" transform="translate(28 263)"/></g><g><path class="st2" d="M-210.2 98c.3 0 .5.2.5.5v53c0 .3-.2.5-.5.5s-.5-.2-.5-.5v-53c0-.3.2-.5.5-.5z" transform="translate(276 215)"/><path class="st3" d="M-211 110.6h1c.6 0 1 .4 1 1v29.2c0 .6-.4 1-1 1h-1c-.6 0-1-.4-1-1v-29.2c0-.6.4-1 1-1z" transform="translate(276 215)"/></g><g><path class="st2" d="M-210.5 98c.1 0 .2.1.2.2v25.6c0 .1-.1.2-.2.2s-.2-.1-.2-.2V98.2c0-.1.1-.2.2-.2z" transform="translate(243 252)"/><path class="st3" d="M-211 104h1c.6 0 1 .4 1 1v13.1c0 .6-.4 1-1 1h-1c-.6 0-1-.4-1-1V105c0-.5.4-1 1-1z" transform="translate(243 252)"/></g><g><path class="st2" d="M-210.2 98c.3 0 .5.2.5.5v53c0 .3-.2.5-.5.5s-.5-.2-.5-.5v-53c0-.3.2-.5.5-.5z" transform="translate(249 247)"/><path class="st3" d="M-211 110.6h1c.6 0 1 .4 1 1v29.2c0 .6-.4 1-1 1h-1c-.6 0-1-.4-1-1v-29.2c0-.6.4-1 1-1z" transform="translate(249 247)"/></g><g><path class="st2" d="M103.5 307c.1 0 .2.1.2.2v43.6c0 .1-.1.2-.2.2s-.2-.1-.2-.2v-43.6c0-.1.1-.2.2-.2z"/><path class="st3" d="M103 317.1h1c.6 0 1 .4 1 1v23.6c0 .6-.4 1-1 1h-1c-.6 0-1-.4-1-1v-23.6c0-.5.4-1 1-1z"/></g><g><path class="st2" d="M-188.5 349c.1 0 .2.1.2.2v43.6c0 .1-.1.2-.2.2s-.2-.1-.2-.2v-43.6c0-.1.1-.2.2-.2z"/><path class="st3" d="M-189 359.1h1c.6 0 1 .4 1 1v23.6c0 .6-.4 1-1 1h-1c-.6 0-1-.4-1-1v-23.6c0-.5.4-1 1-1z"/></g><g><path class="st2" d="M97.5 311c.1 0 .2.1.2.2v43.6c0 .1-.1.2-.2.2s-.2-.1-.2-.2v-43.6c0-.1.1-.2.2-.2z"/><path class="st3" d="M97 321.1h1c.6 0 1 .4 1 1v23.6c0 .6-.4 1-1 1h-1c-.6 0-1-.4-1-1v-23.6c0-.5.4-1 1-1z"/></g><g><path class="st0" d="M72.5 307c.1 0 .2.1.2.2v25.6c0 .1-.1.2-.2.2s-.2-.1-.2-.2v-25.6c0-.1.1-.2.2-.2z"/><path class="st1" d="M72 313h1c.6 0 1 .4 1 1v13.1c0 .6-.4 1-1 1h-1c-.6 0-1-.4-1-1V314c0-.5.4-1 1-1z"/></g><g><path class="st0" d="M77.5 289c.1 0 .2.1.2.2v35.6c0 .1-.1.2-.2.2s-.2-.1-.2-.2v-35.6c0-.1.1-.2.2-.2z"/><path class="st1" d="M77 297.4h1c.6 0 1 .4 1 1v19c0 .6-.4 1-1 1h-1c-.6 0-1-.4-1-1v-19c0-.6.4-1 1-1z"/></g><g><path class="st2" d="M-210.2 98c.3 0 .5.2.5.5v31c0 .3-.2.5-.5.5s-.5-.2-.5-.5v-31c0-.3.2-.5.5-.5z" transform="translate(295 216)"/><path class="st3" d="M-211 103.1h1c.6 0 1 .4 1 1v11.1c0 .6-.4 1-1 1h-1c-.6 0-1-.4-1-1v-11.1c0-.5.4-1 1-1z" transform="translate(295 216)"/></g><g class="st4"><path class="st5" d="M23.6 461.9l-3.9-5.3v5.3h-.8v-6.7h.8l3.8 5.2v-5.2h.8v6.7h-.7zM25.7 459.5c0-1.4.9-2.5 2.4-2.5s2.4 1.1 2.4 2.5-.9 2.5-2.4 2.5-2.4-1.1-2.4-2.5zm4 0c0-1-.6-1.9-1.6-1.9s-1.6.9-1.6 1.9c0 1 .6 1.9 1.6 1.9s1.6-.9 1.6-1.9zM33 461.9l-2-4.8h.8l1.6 4 1.6-4h.8l-2 4.8H33z"/></g><path class="st6" d="M27.6 175.3v277.1"/><g class="st4"><path class="st5" d="M-148.9 461.9v-5.6l-1.1 1.1-.5-.5 1.7-1.7h.7v6.7h-.8zM-146.8 458.6c0-1.8.8-3.4 2.7-3.4.9 0 1.4.3 1.8.8l-.4.6c-.3-.4-.7-.7-1.4-.7-1.3 0-1.9 1.3-1.9 2.6v.3c.3-.5 1-1 1.9-1 1.2 0 2.2.7 2.2 2.1 0 1.2-.9 2.2-2.3 2.2-1.8 0-2.6-1.7-2.6-3.5zm4.1 1.3c0-1-.7-1.4-1.5-1.4-.7 0-1.3.4-1.7 1 .1.8.5 1.8 1.7 1.8 1 0 1.5-.7 1.5-1.4z"/></g><path class="st6" d="M-145.4 175.3v277.1M-192.1 129H338"/><g class="st4"><path class="st5" d="M200.1 461.9v-5.6l-1.1 1.1-.5-.5 1.7-1.7h.7v6.7h-.8zM202.2 458.6c0-1.8.8-3.4 2.7-3.4.9 0 1.4.3 1.8.8l-.4.6c-.3-.4-.7-.7-1.4-.7-1.3 0-1.9 1.3-1.9 2.6v.3c.3-.5 1-1 1.9-1 1.2 0 2.2.7 2.2 2.1 0 1.2-.9 2.2-2.3 2.2-1.8 0-2.6-1.7-2.6-3.5zm4.1 1.3c0-1-.7-1.4-1.5-1.4-.7 0-1.3.4-1.7 1 .1.8.5 1.8 1.7 1.8 1 0 1.5-.7 1.5-1.4z"/></g><path class="st6" d="M203.6 175.3v277.1"/><g class="st4"><path class="st5" d="M112.6 460.3c0-.9.8-1.5 1.6-1.7-.8-.2-1.5-.7-1.5-1.6 0-1.2 1.2-1.7 2.3-1.7 1.1 0 2.3.5 2.3 1.7 0 .9-.7 1.4-1.5 1.6.8.2 1.6.9 1.6 1.7 0 1.1-1.1 1.8-2.4 1.8-1.3 0-2.4-.7-2.4-1.8zm4-.1c0-.9-1.1-1.2-1.5-1.3-.4 0-1.6.4-1.6 1.3 0 .7.7 1.2 1.6 1.2.7-.1 1.5-.5 1.5-1.2zm-.1-3.2c0-.7-.6-1.1-1.4-1.1-.8 0-1.4.4-1.4 1.1 0 .8 1 1.1 1.4 1.1.3 0 1.4-.3 1.4-1.1z"/></g><path class="st6" d="M115.6 175.3v277.1"/><g class="st4"><path class="st5" d="M-65.2 461.9v-.7c2.4-1.9 3.7-3 3.7-4.1 0-.8-.7-1.2-1.4-1.2-.8 0-1.4.3-1.8.8l-.5-.5c.5-.7 1.4-1 2.3-1 1.1 0 2.2.6 2.2 2s-1.4 2.6-3.2 4.1h3.3v.7h-4.6zM-56.4 461.9v-1.7h-3.2v-.7l2.9-4.3h1.1v4.2h.9v.7h-.9v1.7h-.8zm0-5.9l-2.3 3.5h2.3V456z"/></g><path class="st6" d="M-59.4 175.3v277.1"/><g class="st4"><path class="st5" d="M283.8 461.9v-.7c2.4-1.9 3.7-3 3.7-4.1 0-.8-.7-1.2-1.4-1.2-.8 0-1.4.3-1.8.8l-.5-.5c.5-.7 1.4-1 2.3-1 1.1 0 2.2.6 2.2 2s-1.4 2.6-3.2 4.1h3.3v.7h-4.6zM292.6 461.9v-1.7h-3.2v-.7l2.9-4.3h1.1v4.2h.9v.7h-.9v1.7h-.8zm0-5.9l-2.3 3.5h2.3V456z"/></g><path class="st6" d="M289.6 175.3v277.1"/><g class="st4"><path class="st5" d="M71.7 461.9v-1.7h-3.2v-.7l2.9-4.3h1.1v4.2h.9v.7h-.9v1.7h-.8zm0-5.9l-2.3 3.5h2.3V456z"/></g><path class="st6" d="M71.6 175.3v277.1"/><g class="st4"><path class="st5" d="M-108.5 461.9v-.7c2.4-1.9 3.7-3 3.7-4.1 0-.8-.7-1.2-1.4-1.2-.8 0-1.4.3-1.8.8l-.5-.5c.5-.7 1.4-1 2.3-1 1.1 0 2.2.6 2.2 2s-1.4 2.6-3.2 4.1h3.3v.7h-4.6zM-102.6 458.6c0-1.6.7-3.4 2.5-3.4s2.5 1.8 2.5 3.4c0 1.6-.7 3.4-2.5 3.4-1.8.1-2.5-1.8-2.5-3.4zm4.2 0c0-1.3-.4-2.7-1.7-2.7-1.3 0-1.7 1.4-1.7 2.7s.4 2.7 1.7 2.7c1.3 0 1.7-1.4 1.7-2.7z"/></g><path class="st6" d="M-102.4 175.3v277.1"/><g class="st4"><path class="st5" d="M240.5 461.9v-.7c2.4-1.9 3.7-3 3.7-4.1 0-.8-.7-1.2-1.4-1.2-.8 0-1.4.3-1.8.8l-.5-.5c.5-.7 1.4-1 2.3-1 1.1 0 2.2.6 2.2 2s-1.4 2.6-3.2 4.1h3.3v.7h-4.6zM246.4 458.6c0-1.6.7-3.4 2.5-3.4s2.5 1.8 2.5 3.4c0 1.6-.7 3.4-2.5 3.4-1.8.1-2.5-1.8-2.5-3.4zm4.2 0c0-1.3-.4-2.7-1.7-2.7-1.3 0-1.7 1.4-1.7 2.7s.4 2.7 1.7 2.7c1.3 0 1.7-1.4 1.7-2.7z"/></g><path class="st6" d="M246.6 175.3v277.1"/><g class="st4"><path class="st5" d="M-192.9 461.9v-5.6l-1.1 1.1-.5-.5 1.7-1.7h.7v6.7h-.8zM-190.7 461.9v-.7c2.4-1.9 3.7-3 3.7-4.1 0-.8-.7-1.2-1.4-1.2-.8 0-1.4.3-1.8.8l-.5-.5c.5-.7 1.4-1 2.3-1 1.1 0 2.2.6 2.2 2s-1.4 2.6-3.2 4.1h3.3v.7h-4.6z"/></g><path class="st6" d="M-189.4 175.3v277.1"/><g class="st4"><path class="st5" d="M156.1 461.9v-5.6l-1.1 1.1-.5-.5 1.7-1.7h.7v6.7h-.8zM158.3 461.9v-.7c2.4-1.9 3.7-3 3.7-4.1 0-.8-.7-1.2-1.4-1.2-.8 0-1.4.3-1.8.8l-.5-.5c.5-.7 1.4-1 2.3-1 1.1 0 2.2.6 2.2 2s-1.4 2.6-3.2 4.1h3.3v.7h-4.6z"/></g><path class="st6" d="M159.6 175.3v277.1"/><g class="st4"><path class="st5" d="M-21.3 461.9v-.7c2.4-1.9 3.7-3 3.7-4.1 0-.8-.7-1.2-1.4-1.2-.8 0-1.4.3-1.8.8l-.5-.5c.5-.7 1.4-1 2.3-1 1.1 0 2.2.6 2.2 2s-1.4 2.6-3.2 4.1h3.3v.7h-4.6zM-15.4 460.3c0-.9.8-1.5 1.6-1.7-.8-.2-1.5-.7-1.5-1.6 0-1.2 1.2-1.7 2.3-1.7 1.1 0 2.3.5 2.3 1.7 0 .9-.7 1.4-1.5 1.6.8.2 1.6.9 1.6 1.7 0 1.1-1.1 1.8-2.4 1.8-1.4 0-2.4-.7-2.4-1.8zm3.9-.1c0-.9-1.1-1.2-1.5-1.3-.4 0-1.6.4-1.6 1.3 0 .7.7 1.2 1.6 1.2.8-.1 1.5-.5 1.5-1.2zm-.1-3.2c0-.7-.6-1.1-1.4-1.1-.8 0-1.4.4-1.4 1.1 0 .8 1 1.1 1.4 1.1.4 0 1.4-.3 1.4-1.1z"/></g><path class="st6" d="M-15.4 175.3v277.1"/><g class="st4"><path class="st5" d="M327.7 461.9v-.7c2.4-1.9 3.7-3 3.7-4.1 0-.8-.7-1.2-1.4-1.2-.8 0-1.4.3-1.8.8l-.5-.5c.5-.7 1.4-1 2.3-1 1.1 0 2.2.6 2.2 2s-1.4 2.6-3.2 4.1h3.3v.7h-4.6zM333.6 460.3c0-.9.8-1.5 1.6-1.7-.8-.2-1.5-.7-1.5-1.6 0-1.2 1.2-1.7 2.3-1.7 1.1 0 2.3.5 2.3 1.7 0 .9-.7 1.4-1.5 1.6.8.2 1.6.9 1.6 1.7 0 1.1-1.1 1.8-2.4 1.8-1.4 0-2.4-.7-2.4-1.8zm3.9-.1c0-.9-1.1-1.2-1.5-1.3-.4 0-1.6.4-1.6 1.3 0 .7.7 1.2 1.6 1.2.8-.1 1.5-.5 1.5-1.2zm-.1-3.2c0-.7-.6-1.1-1.4-1.1-.8 0-1.4.4-1.4 1.1 0 .8 1 1.1 1.4 1.1.4 0 1.4-.3 1.4-1.1z"/></g><g class="st4"><path class="st5" d="M23.6 155.5l-3.9-5.3v5.3h-.8v-6.7h.8l3.8 5.2v-5.2h.8v6.7h-.7zM25.7 153.1c0-1.4.9-2.5 2.4-2.5s2.4 1.1 2.4 2.5-.9 2.5-2.4 2.5-2.4-1.1-2.4-2.5zm4 0c0-1-.6-1.9-1.6-1.9s-1.6.9-1.6 1.9c0 1 .6 1.9 1.6 1.9s1.6-.9 1.6-1.9zM33 155.5l-2-4.8h.8l1.6 4 1.6-4h.8l-2 4.8H33z"/></g><g class="st4"><path class="st5" d="M-148.9 155.5v-5.6l-1.1 1.1-.5-.5 1.7-1.7h.7v6.7h-.8zM-146.8 152.2c0-1.8.8-3.4 2.7-3.4.9 0 1.4.3 1.8.8l-.4.6c-.3-.4-.7-.7-1.4-.7-1.3 0-1.9 1.3-1.9 2.6v.3c.3-.5 1-1 1.9-1 1.2 0 2.2.7 2.2 2.1 0 1.2-.9 2.2-2.3 2.2-1.8-.1-2.6-1.7-2.6-3.5zm4.1 1.3c0-1-.7-1.4-1.5-1.4-.7 0-1.3.4-1.7 1 .1.8.5 1.8 1.7 1.8 1 0 1.5-.8 1.5-1.4z"/></g><g class="st4"><path class="st5" d="M200.1 155.5v-5.6L199 151l-.5-.5 1.7-1.7h.7v6.7h-.8zM202.2 152.2c0-1.8.8-3.4 2.7-3.4.9 0 1.4.3 1.8.8l-.4.6c-.3-.4-.7-.7-1.4-.7-1.3 0-1.9 1.3-1.9 2.6v.3c.3-.5 1-1 1.9-1 1.2 0 2.2.7 2.2 2.1 0 1.2-.9 2.2-2.3 2.2-1.8-.1-2.6-1.7-2.6-3.5zm4.1 1.3c0-1-.7-1.4-1.5-1.4-.7 0-1.3.4-1.7 1 .1.8.5 1.8 1.7 1.8 1 0 1.5-.8 1.5-1.4z"/></g><g class="st4"><path class="st5" d="M112.6 153.8c0-.9.8-1.5 1.6-1.7-.8-.2-1.5-.7-1.5-1.6 0-1.2 1.2-1.7 2.3-1.7 1.1 0 2.3.5 2.3 1.7 0 .9-.7 1.4-1.5 1.6.8.2 1.6.9 1.6 1.7 0 1.1-1.1 1.8-2.4 1.8-1.3 0-2.4-.6-2.4-1.8zm4-.1c0-.9-1.1-1.2-1.5-1.3-.4 0-1.6.4-1.6 1.3 0 .7.7 1.2 1.6 1.2.7 0 1.5-.5 1.5-1.2zm-.1-3.1c0-.7-.6-1.1-1.4-1.1-.8 0-1.4.4-1.4 1.1 0 .8 1 1.1 1.4 1.1.3 0 1.4-.3 1.4-1.1z"/></g><g class="st4"><path class="st5" d="M-65.2 155.5v-.7c2.4-1.9 3.7-3 3.7-4.1 0-.8-.7-1.2-1.4-1.2-.8 0-1.4.3-1.8.8l-.5-.5c.5-.7 1.4-1 2.3-1 1.1 0 2.2.6 2.2 2s-1.4 2.6-3.2 4.1h3.3v.7h-4.6zM-56.4 155.5v-1.7h-3.2v-.7l2.9-4.3h1.1v4.2h.9v.7h-.9v1.7h-.8zm0-5.9l-2.3 3.5h2.3v-3.5z"/></g><g class="st4"><path class="st5" d="M283.8 155.5v-.7c2.4-1.9 3.7-3 3.7-4.1 0-.8-.7-1.2-1.4-1.2-.8 0-1.4.3-1.8.8l-.5-.5c.5-.7 1.4-1 2.3-1 1.1 0 2.2.6 2.2 2s-1.4 2.6-3.2 4.1h3.3v.7h-4.6zM292.6 155.5v-1.7h-3.2v-.7l2.9-4.3h1.1v4.2h.9v.7h-.9v1.7h-.8zm0-5.9l-2.3 3.5h2.3v-3.5z"/></g><g class="st4"><path class="st5" d="M71.7 155.5v-1.7h-3.2v-.7l2.9-4.3h1.1v4.2h.9v.7h-.9v1.7h-.8zm0-5.9l-2.3 3.5h2.3v-3.5z"/></g><g class="st4"><path class="st5" d="M-108.5 155.5v-.7c2.4-1.9 3.7-3 3.7-4.1 0-.8-.7-1.2-1.4-1.2-.8 0-1.4.3-1.8.8l-.5-.5c.5-.7 1.4-1 2.3-1 1.1 0 2.2.6 2.2 2s-1.4 2.6-3.2 4.1h3.3v.7h-4.6zM-102.6 152.2c0-1.6.7-3.4 2.5-3.4s2.5 1.8 2.5 3.4c0 1.6-.7 3.4-2.5 3.4s-2.5-1.8-2.5-3.4zm4.2 0c0-1.3-.4-2.7-1.7-2.7-1.3 0-1.7 1.4-1.7 2.7s.4 2.7 1.7 2.7c1.3 0 1.7-1.4 1.7-2.7z"/></g><g class="st4"><path class="st5" d="M240.5 155.5v-.7c2.4-1.9 3.7-3 3.7-4.1 0-.8-.7-1.2-1.4-1.2-.8 0-1.4.3-1.8.8l-.5-.5c.5-.7 1.4-1 2.3-1 1.1 0 2.2.6 2.2 2s-1.4 2.6-3.2 4.1h3.3v.7h-4.6zM246.4 152.2c0-1.6.7-3.4 2.5-3.4s2.5 1.8 2.5 3.4c0 1.6-.7 3.4-2.5 3.4s-2.5-1.8-2.5-3.4zm4.2 0c0-1.3-.4-2.7-1.7-2.7-1.3 0-1.7 1.4-1.7 2.7s.4 2.7 1.7 2.7c1.3 0 1.7-1.4 1.7-2.7z"/></g><g class="st4"><path class="st5" d="M-192.9 155.5v-5.6l-1.1 1.1-.5-.5 1.7-1.7h.7v6.7h-.8zM-190.7 155.5v-.7c2.4-1.9 3.7-3 3.7-4.1 0-.8-.7-1.2-1.4-1.2-.8 0-1.4.3-1.8.8l-.5-.5c.5-.7 1.4-1 2.3-1 1.1 0 2.2.6 2.2 2s-1.4 2.6-3.2 4.1h3.3v.7h-4.6z"/></g><g class="st4"><path class="st5" d="M156.1 155.5v-5.6L155 151l-.5-.5 1.7-1.7h.7v6.7h-.8zM158.3 155.5v-.7c2.4-1.9 3.7-3 3.7-4.1 0-.8-.7-1.2-1.4-1.2-.8 0-1.4.3-1.8.8l-.5-.5c.5-.7 1.4-1 2.3-1 1.1 0 2.2.6 2.2 2s-1.4 2.6-3.2 4.1h3.3v.7h-4.6z"/></g><g class="st4"><path class="st5" d="M-21.3 155.5v-.7c2.4-1.9 3.7-3 3.7-4.1 0-.8-.7-1.2-1.4-1.2-.8 0-1.4.3-1.8.8l-.5-.5c.5-.7 1.4-1 2.3-1 1.1 0 2.2.6 2.2 2s-1.4 2.6-3.2 4.1h3.3v.7h-4.6zM-15.4 153.8c0-.9.8-1.5 1.6-1.7-.8-.2-1.5-.7-1.5-1.6 0-1.2 1.2-1.7 2.3-1.7 1.1 0 2.3.5 2.3 1.7 0 .9-.7 1.4-1.5 1.6.8.2 1.6.9 1.6 1.7 0 1.1-1.1 1.8-2.4 1.8-1.4 0-2.4-.6-2.4-1.8zm3.9-.1c0-.9-1.1-1.2-1.5-1.3-.4 0-1.6.4-1.6 1.3 0 .7.7 1.2 1.6 1.2.8 0 1.5-.5 1.5-1.2zm-.1-3.1c0-.7-.6-1.1-1.4-1.1-.8 0-1.4.4-1.4 1.1 0 .8 1 1.1 1.4 1.1.4 0 1.4-.3 1.4-1.1z"/></g><g class="st4"><path class="st5" d="M327.7 155.5v-.7c2.4-1.9 3.7-3 3.7-4.1 0-.8-.7-1.2-1.4-1.2-.8 0-1.4.3-1.8.8l-.5-.5c.5-.7 1.4-1 2.3-1 1.1 0 2.2.6 2.2 2s-1.4 2.6-3.2 4.1h3.3v.7h-4.6zM333.6 153.8c0-.9.8-1.5 1.6-1.7-.8-.2-1.5-.7-1.5-1.6 0-1.2 1.2-1.7 2.3-1.7 1.1 0 2.3.5 2.3 1.7 0 .9-.7 1.4-1.5 1.6.8.2 1.6.9 1.6 1.7 0 1.1-1.1 1.8-2.4 1.8-1.4 0-2.4-.6-2.4-1.8zm3.9-.1c0-.9-1.1-1.2-1.5-1.3-.4 0-1.6.4-1.6 1.3 0 .7.7 1.2 1.6 1.2.8 0 1.5-.5 1.5-1.2zm-.1-3.1c0-.7-.6-1.1-1.4-1.1-.8 0-1.4.4-1.4 1.1 0 .8 1 1.1 1.4 1.1.4 0 1.4-.3 1.4-1.1z"/></g><path class="st6" d="M333.6 175.3v277.1"/><g class="st4"><path class="st7" d="M-195.5 105.7c0-2 1.3-3.4 3.3-3.4 2 0 3.3 1.5 3.3 3.4s-1.3 3.4-3.3 3.4c-2 0-3.3-1.5-3.3-3.4zm5.8 0c0-1.6-1-2.7-2.4-2.7-1.5 0-2.4 1.1-2.4 2.7 0 1.5.9 2.7 2.4 2.7 1.4 0 2.4-1.2 2.4-2.7z"/></g><g class="st4"><path class="st3" d="M-185.3 105.7c0-1.8.8-3.4 2.7-3.4.9 0 1.4.3 1.8.8l-.4.6c-.3-.4-.7-.7-1.4-.7-1.3 0-1.9 1.3-1.9 2.6v.3c.3-.5 1-1 1.9-1 1.2 0 2.2.7 2.2 2.1 0 1.2-.9 2.2-2.3 2.2-1.9-.1-2.6-1.7-2.6-3.5zm4.1 1.3c0-1-.7-1.4-1.5-1.4-.7 0-1.3.4-1.7 1 .1.8.5 1.8 1.7 1.8 1 0 1.5-.8 1.5-1.4zM-178.9 110.3l-.4-.3c.3-.2.6-.6.6-.9h-.1c-.3 0-.5-.2-.5-.5s.2-.5.5-.5.6.3.6.8c.1.5-.3 1-.7 1.4zM-177.1 105.7c0-1.8.8-3.4 2.7-3.4.9 0 1.4.3 1.8.8l-.4.6c-.3-.4-.7-.7-1.4-.7-1.3 0-1.9 1.3-1.9 2.6v.3c.3-.5 1-1 1.9-1 1.2 0 2.2.7 2.2 2.1 0 1.2-.9 2.2-2.3 2.2-1.8-.1-2.6-1.7-2.6-3.5zm4.1 1.3c0-1-.7-1.4-1.5-1.4-.7 0-1.3.4-1.7 1 .1.8.5 1.8 1.7 1.8 1 0 1.5-.8 1.5-1.4zM-169.9 109v-5.6l-1.1 1.1-.5-.5 1.7-1.7h.7v6.7h-.8zM-167.1 109l2.7-5.9h-3.6v-.7h4.5v.6l-2.7 6.1h-.9zM-162.5 108.5c0-.3.2-.5.5-.5s.5.2.5.5-.2.5-.5.5-.5-.2-.5-.5zM-160.3 107.3c0-.9.8-1.5 1.6-1.7-.8-.2-1.5-.7-1.5-1.6 0-1.2 1.2-1.7 2.3-1.7 1.1 0 2.3.5 2.3 1.7 0 .9-.7 1.4-1.5 1.6.8.2 1.6.9 1.6 1.7 0 1.1-1.1 1.8-2.4 1.8-1.3 0-2.4-.6-2.4-1.8zm3.9-.1c0-.9-1.1-1.2-1.5-1.3-.4 0-1.6.4-1.6 1.3 0 .7.7 1.2 1.6 1.2.8 0 1.5-.5 1.5-1.2zm-.1-3.1c0-.7-.6-1.1-1.4-1.1-.8 0-1.4.4-1.4 1.1 0 .8 1 1.1 1.4 1.1.4 0 1.4-.3 1.4-1.1zM-153.2 109v-5.6l-1.1 1.1-.5-.5 1.7-1.7h.7v6.7h-.8zM-151.1 105.7c0-1.6.7-3.4 2.5-3.4s2.5 1.8 2.5 3.4c0 1.6-.7 3.4-2.5 3.4s-2.5-1.8-2.5-3.4zm4.2 0c0-1.3-.4-2.7-1.7-2.7-1.3 0-1.7 1.4-1.7 2.7s.4 2.7 1.7 2.7c1.3 0 1.7-1.4 1.7-2.7z"/></g><g class="st4"><path class="st7" d="M-133 109v-3.1h-3.9v3.1h-.8v-6.7h.8v2.9h3.9v-2.9h.8v6.7h-.8z"/></g><g class="st4"><path class="st3" d="M-129.1 105.7c0-1.8.8-3.4 2.7-3.4.9 0 1.4.3 1.8.8l-.4.6c-.3-.4-.7-.7-1.4-.7-1.3 0-1.9 1.3-1.9 2.6v.3c.3-.5 1-1 1.9-1 1.2 0 2.2.7 2.2 2.1 0 1.2-.9 2.2-2.3 2.2-1.9-.1-2.6-1.7-2.6-3.5zm4 1.3c0-1-.7-1.4-1.5-1.4-.7 0-1.3.4-1.7 1 .1.8.5 1.8 1.7 1.8 1 0 1.5-.8 1.5-1.4zM-122.8 110.3l-.4-.3c.3-.2.6-.6.6-.9h-.1c-.3 0-.5-.2-.5-.5s.2-.5.5-.5.6.3.6.8c.1.5-.2 1-.7 1.4zM-120.9 105.7c0-1.8.8-3.4 2.7-3.4.9 0 1.4.3 1.8.8l-.4.6c-.3-.4-.7-.7-1.4-.7-1.3 0-1.9 1.3-1.9 2.6v.3c.3-.5 1-1 1.9-1 1.2 0 2.2.7 2.2 2.1 0 1.2-.9 2.2-2.3 2.2-1.9-.1-2.6-1.7-2.6-3.5zm4.1 1.3c0-1-.7-1.4-1.5-1.4-.7 0-1.3.4-1.7 1 .1.8.5 1.8 1.7 1.8 1 0 1.5-.8 1.5-1.4zM-115 109v-.7c2.4-1.9 3.7-3 3.7-4.1 0-.8-.7-1.2-1.4-1.2-.8 0-1.4.3-1.8.8l-.5-.5c.5-.7 1.4-1 2.3-1 1.1 0 2.2.6 2.2 2s-1.4 2.6-3.2 4.1h3.3v.7h-4.6zM-109.1 105.7c0-1.6.7-3.4 2.5-3.4s2.5 1.8 2.5 3.4c0 1.6-.7 3.4-2.5 3.4s-2.5-1.8-2.5-3.4zm4.2 0c0-1.3-.4-2.7-1.7-2.7-1.3 0-1.7 1.4-1.7 2.7s.4 2.7 1.7 2.7c1.3 0 1.7-1.4 1.7-2.7zM-102.9 108.5c0-.3.2-.5.5-.5s.5.2.5.5-.2.5-.5.5-.5-.2-.5-.5zM-100.7 109v-.7c2.4-1.9 3.7-3 3.7-4.1 0-.8-.7-1.2-1.4-1.2-.8 0-1.4.3-1.8.8l-.5-.5c.5-.7 1.4-1 2.3-1 1.1 0 2.2.6 2.2 2s-1.4 2.6-3.2 4.1h3.3v.7h-4.6zM-94.5 108.3l.4-.6c.3.4.7.7 1.4.7 1.3 0 1.9-1.3 1.9-2.6v-.3c-.3.5-1 1-1.9 1-1.2 0-2.2-.7-2.2-2.1 0-1.1.9-2.2 2.3-2.2 1.9 0 2.6 1.6 2.6 3.4 0 1.8-.8 3.4-2.7 3.4-.8.1-1.4-.2-1.8-.7zm3.7-3.5c-.1-.8-.5-1.9-1.7-1.9-1 0-1.5.8-1.5 1.4 0 1 .7 1.4 1.5 1.4.7.1 1.3-.3 1.7-.9zM-88.8 108.1l.5-.5c.4.6 1 .9 1.8.9.9 0 1.5-.6 1.5-1.4 0-.9-.6-1.4-1.5-1.4-.6 0-1.1.2-1.5.6l-.6-.2v-3.6h4.1v.7h-3.2v2.3c.3-.3.9-.6 1.6-.6 1.1 0 2.1.8 2.1 2.1 0 1.4-1 2.2-2.4 2.2-1.1-.1-1.9-.5-2.4-1.1z"/></g><g class="st4"><path class="st7" d="M-73.6 109v-6.7h.8v5.9h3.1v.7h-3.9z"/></g><g class="st4"><path class="st3" d="M-67.7 105.7c0-1.8.8-3.4 2.7-3.4.9 0 1.4.3 1.8.8l-.4.6c-.3-.4-.7-.7-1.4-.7-1.3 0-1.9 1.3-1.9 2.6v.3c.3-.5 1-1 1.9-1 1.2 0 2.2.7 2.2 2.1 0 1.2-.9 2.2-2.3 2.2-1.9-.1-2.6-1.7-2.6-3.5zm4 1.3c0-1-.7-1.4-1.5-1.4-.7 0-1.3.4-1.7 1 .1.8.5 1.8 1.7 1.8 1 0 1.5-.8 1.5-1.4zM-58.9 109v-1.7H-62v-.7l2.9-4.3h1.1v4.2h.9v.7h-.9v1.7h-.9zm0-5.9l-2.3 3.5h2.3v-3.5zM-55.9 108.3l.4-.6c.3.4.7.7 1.4.7 1.3 0 1.9-1.3 1.9-2.6v-.3c-.3.5-1 1-1.9 1-1.2 0-2.2-.7-2.2-2.1 0-1.1.9-2.2 2.3-2.2 1.9 0 2.6 1.6 2.6 3.4 0 1.8-.8 3.4-2.7 3.4-.8.1-1.4-.2-1.8-.7zm3.7-3.5c-.1-.8-.5-1.9-1.7-1.9-1 0-1.5.8-1.5 1.4 0 1 .7 1.4 1.5 1.4.7.1 1.3-.3 1.7-.9zM-50.3 108.5c0-.3.2-.5.5-.5s.5.2.5.5-.2.5-.5.5-.5-.2-.5-.5zM-48.3 108l.5-.5c.4.5 1.1.9 1.9.9 1 0 1.6-.5 1.6-1.2 0-.8-.7-1.2-1.7-1.2h-.7v-.8h.7c.8 0 1.5-.3 1.5-1.1 0-.7-.7-1.1-1.5-1.1-.7 0-1.3.3-1.8.8l-.5-.5c.5-.6 1.2-1 2.3-1 1.3 0 2.3.7 2.3 1.8 0 1-.8 1.4-1.4 1.5.6.1 1.5.6 1.5 1.6 0 1.1-.9 1.9-2.4 1.9-1 0-1.9-.5-2.3-1.1zM-42.3 108.1l.5-.5c.4.6 1 .9 1.8.9.9 0 1.5-.6 1.5-1.4 0-.9-.6-1.4-1.5-1.4-.6 0-1.1.2-1.5.6l-.6-.2v-3.6h4.1v.7h-3.2v2.3c.3-.3.9-.6 1.6-.6 1.1 0 2.1.8 2.1 2.1 0 1.4-1 2.2-2.4 2.2-1.2-.1-1.9-.5-2.4-1.1zM-36.6 105.7c0-1.6.7-3.4 2.5-3.4s2.5 1.8 2.5 3.4c0 1.6-.7 3.4-2.5 3.4s-2.5-1.8-2.5-3.4zm4.3 0c0-1.3-.4-2.7-1.7-2.7s-1.7 1.4-1.7 2.7.4 2.7 1.7 2.7 1.7-1.4 1.7-2.7z"/></g><g class="st4"><path class="st7" d="M-23.9 105.7c0-2 1.5-3.4 3.4-3.4 1.2 0 2 .6 2.5 1.3l-.7.4c-.4-.6-1.1-1-1.8-1-1.5 0-2.6 1.1-2.6 2.7s1.1 2.7 2.6 2.7c.8 0 1.4-.4 1.8-1l.7.4c-.6.8-1.4 1.3-2.5 1.3-1.9 0-3.4-1.4-3.4-3.4z"/></g><g class="st4"><path class="st3" d="M-15.4 105.7c0-1.8.8-3.4 2.7-3.4.9 0 1.4.3 1.8.8l-.4.6c-.3-.4-.7-.7-1.4-.7-1.3 0-1.9 1.3-1.9 2.6v.3c.3-.5 1-1 1.9-1 1.2 0 2.2.7 2.2 2.1 0 1.2-.9 2.2-2.3 2.2-1.9-.1-2.6-1.7-2.6-3.5zm4.1 1.3c0-1-.7-1.4-1.5-1.4-.7 0-1.3.4-1.7 1 .1.8.5 1.8 1.7 1.8 1 0 1.5-.8 1.5-1.4zM-9.3 108.1l.5-.5c.4.6 1 .9 1.8.9.9 0 1.5-.6 1.5-1.4 0-.9-.6-1.4-1.5-1.4-.6 0-1.1.2-1.5.6l-.6-.2v-3.6H-5v.7h-3.2v2.3c.3-.3.9-.6 1.6-.6 1.1 0 2.1.8 2.1 2.1 0 1.4-1 2.2-2.4 2.2-1.2-.1-1.9-.5-2.4-1.1zM-3.8 108l.5-.5c.4.5 1.1.9 1.9.9 1 0 1.6-.5 1.6-1.2 0-.8-.7-1.2-1.7-1.2h-.7v-.8h.7c.8 0 1.5-.3 1.5-1.1 0-.7-.7-1.1-1.5-1.1-.7 0-1.3.3-1.8.8l-.5-.5c.5-.6 1.2-1 2.3-1 1.3 0 2.3.7 2.3 1.8 0 1-.8 1.4-1.4 1.5.6.1 1.5.6 1.5 1.6 0 1.1-.9 1.9-2.4 1.9-1.1 0-1.9-.5-2.3-1.1zM2.1 108.5c0-.3.2-.5.5-.5s.5.2.5.5-.2.5-.5.5-.5-.2-.5-.5zM5.6 109v-5.6l-1.1 1.1-.5-.4 1.7-1.7h.7v6.7h-.8zM7.7 109v-.7c2.4-1.9 3.7-3 3.7-4.1 0-.8-.7-1.2-1.4-1.2-.8 0-1.4.3-1.8.8l-.5-.5c.5-.7 1.4-1 2.3-1 1.1 0 2.2.6 2.2 2s-1.4 2.6-3.2 4.1h3.3v.7H7.7zM13.6 105.7c0-1.6.7-3.4 2.5-3.4s2.5 1.8 2.5 3.4c0 1.6-.7 3.4-2.5 3.4s-2.5-1.8-2.5-3.4zm4.2 0c0-1.3-.4-2.7-1.7-2.7-1.3 0-1.7 1.4-1.7 2.7s.4 2.7 1.7 2.7c1.3 0 1.7-1.4 1.7-2.7z"/></g><g class="st4"><path class="st7" d="M281.9 107v-5.5l-2.3 5.5h-.3l-2.3-5.5v5.5h-.8v-6.7h1.2l2.1 5 2.1-5h1.2v6.7h-.9zM287.3 107v-.5c-.4.4-1 .7-1.6.7-.8 0-1.7-.5-1.7-1.6s.9-1.6 1.7-1.6c.7 0 1.2.2 1.6.7v-.9c0-.6-.5-1-1.2-1-.6 0-1 .2-1.5.7l-.3-.5c.5-.5 1.1-.8 1.9-.8 1 0 1.9.5 1.9 1.6v3.3h-.8zm0-1v-.9c-.3-.4-.8-.6-1.3-.6-.7 0-1.2.4-1.2 1.1 0 .6.5 1 1.2 1 .5 0 1-.2 1.3-.6zM289.6 107v-4.8h.8v.8c.4-.5.9-.9 1.6-.9v.8h-.3c-.5 0-1.1.4-1.3.8v3.4h-.8zM296.2 107l-1.7-2.2-.8.8v1.4h-.8v-6.7h.8v4.4l2.5-2.6h1l-2.1 2.2 2.1 2.6h-1zM297.7 104.6c0-1.4 1-2.5 2.4-2.5 1.5 0 2.3 1.1 2.3 2.6v.2h-3.9c.1.9.7 1.7 1.7 1.7.5 0 1.1-.2 1.5-.6l.4.5c-.5.5-1.1.7-1.9.7-1.4-.1-2.5-1.1-2.5-2.6zm2.4-1.9c-1 0-1.5.9-1.6 1.6h3.2c0-.7-.5-1.6-1.6-1.6zM303.8 106v-3.2h-.8v-.7h.8v-1.3h.8v1.3h1v.7h-1v3c0 .4.2.6.5.6.2 0 .4-.1.5-.2l.2.6c-.2.2-.5.3-.9.3-.7 0-1.1-.4-1.1-1.1zM308.9 104.6c0-1.4.9-2.5 2.4-2.5s2.4 1.1 2.4 2.5-.9 2.5-2.4 2.5-2.4-1.1-2.4-2.5zm4 0c0-1-.6-1.9-1.6-1.9s-1.6.9-1.6 1.9c0 1 .6 1.9 1.6 1.9s1.6-.9 1.6-1.9zM315.6 106.3v2.6h-.8v-6.7h.8v.7c.3-.5.9-.8 1.6-.8 1.3 0 2.1 1 2.1 2.5 0 1.6-.9 2.5-2.1 2.5-.6 0-1.2-.3-1.6-.8zm3-1.7c0-1.1-.6-1.9-1.5-1.9-.6 0-1.2.3-1.4.8v2.2c.3.4.8.8 1.4.8.9 0 1.5-.8 1.5-1.9zM320.3 104.6c0-1.4 1-2.5 2.4-2.5 1.5 0 2.3 1.1 2.3 2.6v.2h-3.9c.1.9.7 1.7 1.7 1.7.5 0 1.1-.2 1.5-.6l.4.5c-.5.5-1.1.7-1.9.7-1.4-.1-2.5-1.1-2.5-2.6zm2.4-1.9c-1 0-1.5.9-1.6 1.6h3.2c0-.7-.5-1.6-1.6-1.6zM329.5 107v-3.2c0-.8-.4-1.1-1.1-1.1-.6 0-1.1.4-1.4.7v3.5h-.8v-4.8h.8v.7c.3-.4 1-.8 1.7-.8 1 0 1.5.5 1.5 1.6v3.4h-.7z"/></g><circle class="st8" cx="264" cy="104" r="3"/></g></svg>