<svg width="33" height="28" viewBox="0 0 33 28" fill="none" xmlns="http://www.w3.org/2000/svg">
<path d="M11 27.7369V23H5L10.6894 27.958C10.8235 28.0686 11 27.9488 11 27.7369Z" fill="white"/>
<path d="M26.3041 23H5L11.5932 5.28571C11.6542 5.11111 11.8143 5 11.9972 5H32.783C32.9354 5 33.0345 5.15873 32.9888 5.30159L26.7233 22.7063C26.6471 22.881 26.487 23 26.3041 23Z" fill="url(#paint0_linear)"/>
<path opacity="0.7" d="M10.472 0.0652929L0.103911 6.46795C-0.0346372 6.55501 -0.0346372 6.76078 0.103911 6.84784L25.5815 22.9692C27 23 26.8514 22.3002 27 22L30.5 12.5L10.9261 0.0652929C10.7876 -0.0217643 10.6182 -0.0217643 10.472 0.0652929Z" fill="white"/>
<defs>
<linearGradient id="paint0_linear" x1="10.7557" y1="21.1489" x2="32.9921" y2="21.1489" gradientUnits="userSpaceOnUse">
<stop stop-color="white"/>
<stop offset="1" stop-color="white" stop-opacity="0.47099"/>
</linearGradient>
</defs>
</svg>
